<svg xmlns="http://www.w3.org/2000/svg" viewBox="0 0 400 500" width="400" height="500">
  <rect width="400" height="500" fill="#2c4a8a"/>
  
  <g opacity="0.15" fill="#f0f4ff">
    <rect x="123" y="173" width="153" height="173" rx="3"/>
    <path d="M 172.0,152.0 Q 200.0,165.3 228.0,152.0 L 228.0,176.7 Q 200.0,170.0 172.0,176.7 Z"/>
    <path d="M 123.3,173.3 L 83.3,210.0 L 98.7,230.0 L 123.3,194.7 Z"/>
    <path d="M 276.7,173.3 L 316.7,210.0 L 301.3,230.0 L 276.7,194.7 Z"/>
    <line x1="200" y1="177" x2="200" y2="347" stroke="#f0f4ff" stroke-width="1.5" opacity="0.25"/>
  </g>
  <!-- Watermark letter -->
  <text x="200" y="250" font-family="Arial Black,Arial,sans-serif" font-size="152"
        font-weight="900" fill="#f0f4ff" opacity="0.04" text-anchor="middle" dominant-baseline="middle">H</text>
  <!-- View label top-right -->
  <text x="388" y="20" font-family="monospace" font-size="10"
        fill="#f0f4ff" opacity="0.4" text-anchor="end">BACK VIEW</text>
  <!-- Product name -->
  <text x="200" y="435" font-family="Arial,sans-serif" font-size="18"
        font-weight="600" fill="#f0f4ff" opacity="0.75" text-anchor="middle">Oxford Button-Do…</text>
  <!-- Product ID -->
  <text x="200" y="460" font-family="monospace" font-size="11"
        fill="#f0f4ff" opacity="0.35" text-anchor="middle">SHIRT-001</text>
  <!-- Corner marks -->
  <rect x="10" y="10" width="20" height="2" fill="#f0f4ff" opacity="0.2"/>
  <rect x="10" y="10" width="2" height="20" fill="#f0f4ff" opacity="0.2"/>
  <rect x="370" y="10" width="20" height="2" fill="#f0f4ff" opacity="0.2"/>
  <rect x="388" y="10" width="2" height="20" fill="#f0f4ff" opacity="0.2"/>
  <rect x="10" y="488" width="20" height="2" fill="#f0f4ff" opacity="0.2"/>
  <rect x="10" y="470" width="2" height="20" fill="#f0f4ff" opacity="0.2"/>
  <rect x="370" y="488" width="20" height="2" fill="#f0f4ff" opacity="0.2"/>
  <rect x="388" y="470" width="2" height="20" fill="#f0f4ff" opacity="0.2"/>
</svg>