<svg xmlns="http://www.w3.org/2000/svg" viewBox="0 0 800 1000" width="800" height="1000">
  <rect width="800" height="1000" fill="#f8f8f6"/>
  
  <g opacity="0.15" fill="#1a1a1a">
    <rect x="247" y="347" width="307" height="347" rx="3"/>
    <path d="M 344.0,304.0 Q 400.0,330.7 456.0,304.0 L 456.0,353.3 Q 400.0,340.0 344.0,353.3 Z"/>
    <path d="M 246.7,346.7 L 166.7,420.0 L 197.3,460.0 L 246.7,389.3 Z"/>
    <path d="M 553.3,346.7 L 633.3,420.0 L 602.7,460.0 L 553.3,389.3 Z"/>
    <line x1="400" y1="353" x2="400" y2="693" stroke="#1a1a1a" stroke-width="1.5" opacity="0.25"/>
  </g>
  <!-- Watermark letter -->
  <text x="400" y="500" font-family="Arial Black,Arial,sans-serif" font-size="304"
        font-weight="900" fill="#1a1a1a" opacity="0.04" text-anchor="middle" dominant-baseline="middle">H</text>
  <!-- View label top-right -->
  <text x="788" y="24" font-family="monospace" font-size="21"
        fill="#1a1a1a" opacity="0.4" text-anchor="end">BACK VIEW</text>
  <!-- Product name -->
  <text x="400" y="870" font-family="Arial,sans-serif" font-size="36"
        font-weight="600" fill="#1a1a1a" opacity="0.75" text-anchor="middle">Poplin Slim-Fit</text>
  <!-- Product ID -->
  <text x="400" y="920" font-family="monospace" font-size="23"
        fill="#1a1a1a" opacity="0.35" text-anchor="middle">SHIRT-003</text>
  <!-- Corner marks -->
  <rect x="10" y="10" width="20" height="2" fill="#1a1a1a" opacity="0.2"/>
  <rect x="10" y="10" width="2" height="20" fill="#1a1a1a" opacity="0.2"/>
  <rect x="770" y="10" width="20" height="2" fill="#1a1a1a" opacity="0.2"/>
  <rect x="788" y="10" width="2" height="20" fill="#1a1a1a" opacity="0.2"/>
  <rect x="10" y="988" width="20" height="2" fill="#1a1a1a" opacity="0.2"/>
  <rect x="10" y="970" width="2" height="20" fill="#1a1a1a" opacity="0.2"/>
  <rect x="770" y="988" width="20" height="2" fill="#1a1a1a" opacity="0.2"/>
  <rect x="788" y="970" width="2" height="20" fill="#1a1a1a" opacity="0.2"/>
</svg>